<svg id="デザイン" xmlns="http://www.w3.org/2000/svg" viewBox="0 0 264.25 239.7"><defs><style>.cls-1{fill:#f4f4f4;}</style></defs><path class="cls-1" d="M156.59,124.18c-5.54-9.23,1.74-15.36,14.87-27.13,19.06-17.11,37.59-32.24,70.69-35.85,3.47-.27,16.93,18.21,16.75,37.93-.41,5,.49,11.31,2.31,15.3s4.54,21.37,2,51.27c-.46,4.08-4.19.93-13-8.19s-25-17.28-51.5-24C169.17,125.91,160.21,128.74,156.59,124.18Z"/><path class="cls-1" d="M148.54,143.39c11.61-4.5,26.79-2.5,52.9,2.8,21.93,4.46,48.2,17.63,56.14,29,3.11,3.2-3.51,16.46-16.31,23.77s-42.54,19.33-48.84,23.5-18.19,14.61-38.05,16.73-51.09-2.07-53.87-12.78c-2.58-10.14.59-34.42,5.07-48.89,7.75-23.47,8.53-32.18,20-30.94C134.26,146.74,140.49,146.78,148.54,143.39Z"/><path class="cls-1" d="M99.58,140.9c2.41,6.85-4.55,19.82-7,37.26-2.42,17.23,1.69,44.41-1.09,48-4.84,6.32-13.91,2-26.25-6.22s-27.76-23.45-34.52-42.71C26.64,168.05,5.43,162.75,1,140.93c-4.17-20.62,4.66-22.36,21.28-26.42,11.42-2.79,26.17-2,50.41,7.9C84.71,127.32,95.56,129.42,99.58,140.9Z"/><path class="cls-1" d="M76.59,10.55C55.35,3.82,39.31,25,36.61,33.14s-6.48,12.69-17.5,26.75S3.89,95.25,1,104.59s.86,13.12,4.12,9.91c20.38-18.26,52.32-10,68.55-4.51,7.17,2.81,24.25,8.61,24.25,8.61,13.2,4,15.91-9.13,11.48-33.19C107.36,74.27,92.23,14,76.59,10.55Z"/><path class="cls-1" d="M129.07,112.11c2.17.75,1.72.36,5.45-.16,4.95-1.9-1.15-.59,30.37-25.82C179.62,74.34,205,56,238.75,54.65c4.09.3-2.61-8.77-13.46-18s-14.67-27.46-65-32c-27.86-7.06-62.17-4.95-68.7-.34s-3.91,7.39,1.61,14.25,20.2,30.79,27.82,68.24C125,106,122.84,109,129.07,112.11Z"/></svg>